<svg width="20" height="20" viewBox="0 0 20 20" fill="none" xmlns="http://www.w3.org/2000/svg">
<path fill-rule="evenodd" clip-rule="evenodd" d="M10 0C4.47656 0 0 4.47656 0 10C0 15.5234 4.47656 20 10 20C15.5234 20 20 15.5234 20 10C20 4.47656 15.5234 0 10 0ZM14.707 13.7363C14.9531 13.9785 14.957 14.373 14.7168 14.6211C14.4746 14.8672 14.0801 14.8711 13.832 14.6309L10 10.875L6.16797 14.6289C5.92188 14.8711 5.52539 14.8672 5.2832 14.6191C5.04102 14.373 5.04492 13.9766 5.29297 13.7344L9.10742 10L5.29297 6.26367C5.04688 6.02148 5.04297 5.62695 5.2832 5.37891C5.52539 5.13281 5.91992 5.12891 6.16797 5.36914L10 9.125L13.832 5.3711C14.0781 5.12891 14.4746 5.13281 14.7168 5.38086C14.959 5.62695 14.9551 6.02344 14.707 6.26563L10.8926 10L14.707 13.7363Z" fill="#F5222D"/>
</svg>
