<svg width="20" height="20" viewBox="0 0 20 20" fill="none" xmlns="http://www.w3.org/2000/svg">
<path fill-rule="evenodd" clip-rule="evenodd" d="M10 0C4.47703 0 0 4.47703 0 10C0 15.523 4.47703 20 10 20C15.523 20 20 15.523 20 10C20 4.47703 15.523 0 10 0ZM16.045 7.34897L7.92376 15.2532C7.67938 15.4976 7.2825 15.4976 7.03812 15.2532L3.93548 12.2874C3.6911 12.043 3.6911 11.6461 3.93548 11.4018C4.17986 11.1574 4.57674 11.1574 4.82112 11.4018L7.48192 13.9257L15.1593 6.46334C15.4037 6.21896 15.8006 6.21896 16.045 6.46334C16.2893 6.70772 16.2893 7.10459 16.045 7.34897Z" fill="#52C41A"/>
</svg>
