<svg width="20" height="20" viewBox="0 0 20 20" fill="none" xmlns="http://www.w3.org/2000/svg">
<path d="M7.36842 5.81482V14.7359C7.36842 15.9626 8.30526 16.9662 9.47368 16.9662H18.9474V18.0813C18.9474 19.308 18 20.3116 16.8421 20.3116H2.10526C0.936842 20.3116 0 19.308 0 18.0813V2.46941C0 1.24276 0.936842 0.239136 2.10526 0.239136H16.8421C18 0.239136 18.9474 1.24276 18.9474 2.46941V3.58455H9.47368C8.30526 3.58455 7.36842 4.58817 7.36842 5.81482Z" fill="url(#paint0_linear)" fill-opacity="0.5"/>
<path fill-rule="evenodd" clip-rule="evenodd" d="M9.47368 6.92996C9.47368 6.31663 9.94737 5.81482 10.5263 5.81482H20V14.7359H10.5263C9.94737 14.7359 9.47368 14.2341 9.47368 13.6208V6.92996ZM12.1053 10.2754C12.1053 11.2009 12.8105 11.9481 13.6842 11.9481C14.0119 11.9481 14.3159 11.843 14.5678 11.6628L12.4316 9.25542C12.2269 9.53749 12.1053 9.89105 12.1053 10.2754ZM15.0105 11.1848C15.1704 10.9232 15.2632 10.611 15.2632 10.2754C15.2632 9.34981 14.5579 8.60267 13.6842 8.60267C13.4024 8.60267 13.138 8.68042 12.9093 8.81684L15.0105 11.1848Z" fill="url(#paint1_linear)" fill-opacity="0.5"/>
<defs>
<linearGradient id="paint0_linear" x1="10" y1="0.239136" x2="10" y2="20.3116" gradientUnits="userSpaceOnUse">
<stop stop-color="#382BC4"/>
<stop offset="1" stop-color="#A796F7"/>
</linearGradient>
<linearGradient id="paint1_linear" x1="10" y1="0.239136" x2="10" y2="20.3116" gradientUnits="userSpaceOnUse">
<stop stop-color="#382BC4"/>
<stop offset="1" stop-color="#A796F7"/>
</linearGradient>
</defs>
</svg>
