<svg width="20" height="20" viewBox="0 0 20 20" fill="none" xmlns="http://www.w3.org/2000/svg">
<path d="M14.24 6.17803C13.07 5.00803 11.54 4.41803 10 4.41803V10.418L5.76 14.658C8.1 16.998 11.9 16.998 14.25 14.658C16.59 12.318 16.59 8.51803 14.24 6.17803ZM10 0.41803C4.48 0.41803 0 4.89803 0 10.418C0 15.938 4.48 20.418 10 20.418C15.52 20.418 20 15.938 20 10.418C20 4.89803 15.52 0.41803 10 0.41803ZM10 18.418C5.58 18.418 2 14.838 2 10.418C2 5.99803 5.58 2.41803 10 2.41803C14.42 2.41803 18 5.99803 18 10.418C18 14.838 14.42 18.418 10 18.418Z" fill="url(#paint0_linear)"/>
<defs>
<linearGradient id="paint0_linear" x1="10" y1="0.41803" x2="10" y2="20.418" gradientUnits="userSpaceOnUse">
<stop stop-color="#3B16A6"/>
<stop offset="1" stop-color="#6F4CFF" stop-opacity="0.43"/>
</linearGradient>
</defs>
</svg>
