<svg width="48" height="48" viewBox="0 0 48 48" fill="none" xmlns="http://www.w3.org/2000/svg">
<path d="M40 15.9999H34V12.4199C34 7.19991 30.18 2.53991 24.98 2.03991C19.02 1.47991 14 6.15991 14 11.9999H18C18 9.73991 19.2 7.51991 21.28 6.59991C25.7 4.61991 30 7.79991 30 11.9999V15.9999H8V43.9999H40V15.9999ZM36 39.9999H12V19.9999H36V39.9999ZM24 33.9999C26.2 33.9999 28 32.1999 28 29.9999C28 27.7999 26.2 25.9999 24 25.9999C21.8 25.9999 20 27.7999 20 29.9999C20 32.1999 21.8 33.9999 24 33.9999Z" fill="#140D7C"/>
</svg>
