<svg width="20" height="20" viewBox="0 0 20 20" fill="none" xmlns="http://www.w3.org/2000/svg">
<path d="M10 0C10.5112 0 11.0224 0.195006 11.4123 0.584971L13.2144 2.38721H15.7021C16.8052 2.38721 17.6993 3.28141 17.6993 4.38444V6.87207L19.415 8.58777C20.195 9.36772 20.195 10.6323 19.415 11.4123L17.6993 13.128V15.7021C17.6993 16.8051 16.8052 17.6993 15.702 17.6993H13.128L11.4123 19.415C11.0223 19.805 10.5112 20 10 20C9.48879 20 8.97762 19.805 8.58772 19.415L6.872 17.6993H4.38442C3.28143 17.6993 2.38719 16.8051 2.38719 15.7021V13.2145L0.585017 11.4123C-0.195006 10.6323 -0.195006 9.36775 0.585017 8.58777L2.38717 6.78553V4.38446C2.38717 3.28146 3.28143 2.38724 4.38439 2.38724H6.78555L8.5877 0.584994C8.97764 0.195029 9.48879 0 9.99995 0H10ZM13.7012 7.93565C13.4312 7.66566 12.9935 7.66566 12.7235 7.93565L9.42344 11.2357L8.00055 9.86164C7.72865 9.59905 7.29697 9.60391 7.03103 9.87054L7.02301 9.87871L7.02277 9.87894C6.75757 10.1536 6.7652 10.5912 7.03986 10.8565L8.91496 12.6672C9.00273 12.7523 9.11156 12.8124 9.23027 12.8414C9.47124 12.9225 9.74802 12.867 9.94 12.675L13.7014 8.91357C13.9714 8.64358 13.9714 8.20585 13.7014 7.93588L13.7012 7.93565Z" fill="#251ABB"/>
</svg>
