<svg width="50" height="50" viewBox="0 0 50 50" fill="none" xmlns="http://www.w3.org/2000/svg">
<path d="M41.6667 37.4999C43.9583 37.4999 45.8333 35.6249 45.8333 33.3332V12.4999C45.8333 10.2083 43.9583 8.33325 41.6667 8.33325H8.33333C6.04167 8.33325 4.16667 10.2083 4.16667 12.4999V33.3332C4.16667 35.6249 6.02083 37.4999 8.33333 37.4999H2.08333C0.9375 37.4999 0 38.4374 0 39.5832C0 40.7291 0.9375 41.6666 2.08333 41.6666H47.9167C49.0625 41.6666 50 40.7291 50 39.5832C50 38.4374 49.0625 37.4999 47.9167 37.4999H41.6667ZM27.0833 30.1458V25.5832C21.2917 25.5832 17.4792 27.3541 14.5833 31.2499C15.75 25.6874 18.9792 20.1458 27.0833 19.0208V14.5833L34.6042 21.5832C35.0417 21.9999 35.0417 22.6874 34.6042 23.1041L27.0833 30.1458Z" fill="url(#paint0_linear)"/>
<defs>
<linearGradient id="paint0_linear" x1="25" y1="8.33325" x2="25" y2="41.6666" gradientUnits="userSpaceOnUse">
<stop stop-color="#251ABB"/>
<stop offset="1" stop-color="#6F4CFF" stop-opacity="0.43"/>
</linearGradient>
</defs>
</svg>
