<svg width="20" height="20" viewBox="0 0 20 20" fill="none" xmlns="http://www.w3.org/2000/svg">
<path fill-rule="evenodd" clip-rule="evenodd" d="M11.4123 0.584971C11.0224 0.195006 10.5112 0 10 0C9.48883 0 8.97764 0.195029 8.5877 0.584994L6.78555 2.38724H4.38439C3.28143 2.38724 2.38717 3.28146 2.38717 4.38446V6.78553L0.585017 8.58777C-0.195006 9.36775 -0.195006 10.6323 0.585017 11.4123L2.38719 13.2145V15.7021C2.38719 16.8051 3.28143 17.6993 4.38442 17.6993H6.872L8.58772 19.415C8.97762 19.805 9.48879 20 10 20C10.5112 20 11.0223 19.805 11.4123 19.415L13.128 17.6993H15.702C16.8052 17.6993 17.6993 16.8051 17.6993 15.7021V13.128L19.415 11.4123C20.195 10.6323 20.195 9.36772 19.415 8.58777L17.6993 6.87207V4.38444C17.6993 3.28141 16.8052 2.38721 15.7021 2.38721H13.2144L11.4123 0.584971ZM11 6.83729C11 6.37484 10.597 6 10.0999 6C9.60288 6 9.19999 6.37485 9.2 6.83731V11.6792C9.2 12.1416 9.60288 12.5166 10.0999 12.5166C10.597 12.5166 11 12.1416 11 11.6792V6.83729ZM11 14.1117C11 13.6492 10.597 13.2743 10.0999 13.2743C9.60288 13.2743 9.19999 13.6492 9.2 14.1117V14.1626C9.2 14.6251 9.60288 15 10.0999 15C10.597 15 11 14.6251 11 14.1626V14.1117Z" fill="#AEB0C1"/>
</svg>
