<svg width="165" height="50" viewBox="0 0 165 50" fill="none" xmlns="http://www.w3.org/2000/svg">
<g clip-path="url(#clip0)">
<path fill-rule="evenodd" clip-rule="evenodd" d="M48.28 23.4373C47.8695 23.4405 47.4767 23.6056 47.1864 23.8968C46.8961 24.188 46.7315 24.582 46.7282 24.9939C46.7216 30.7949 44.4214 36.3564 40.3323 40.4584C36.2431 44.5603 30.6989 46.8677 24.916 46.8744C24.5268 46.9094 24.1649 47.0892 23.9013 47.3784C23.6376 47.6676 23.4915 48.0454 23.4915 48.4373C23.4915 48.8292 23.6376 49.2069 23.9013 49.4961C24.1649 49.7853 24.5268 49.9651 24.916 50.0002C31.5192 49.9737 37.8446 47.3306 42.5138 42.6468C47.1831 37.9629 49.8179 31.6178 49.8443 24.9939C49.841 24.5799 49.6747 24.184 49.3817 23.8924C49.0887 23.6008 48.6927 23.4372 48.28 23.4373ZM3.75443 36.1411C3.4851 36.2949 3.26737 36.5254 3.12885 36.8035C2.99033 37.0816 2.93726 37.3946 2.97638 37.703C3.0155 38.0114 3.14504 38.3011 3.34856 38.5355C3.55209 38.7699 3.82044 38.9384 4.11956 39.0196C4.41869 39.1008 4.73512 39.0911 5.02871 38.9916C5.3223 38.8921 5.57982 38.7074 5.76861 38.4609C5.9574 38.2144 6.06895 37.9172 6.08911 37.607C6.10927 37.2968 6.03713 36.9876 5.88184 36.7186C5.67496 36.3602 5.33524 36.0984 4.93673 35.9902C4.53822 35.8821 4.11323 35.9363 3.75443 36.1411ZM12.3546 43.9423C12.6638 43.9221 12.9721 43.9944 13.2402 44.1502C13.4184 44.2518 13.5747 44.3877 13.7002 44.5502C13.8257 44.7127 13.9178 44.8985 13.9713 45.0969C14.0249 45.2953 14.0387 45.5024 14.012 45.7062C13.9853 45.91 13.9187 46.1065 13.8159 46.2843C13.6626 46.5544 13.4328 46.7729 13.1556 46.9118C12.8784 47.0508 12.5663 47.104 12.2589 47.0648C11.9515 47.0255 11.6626 46.8956 11.429 46.6914C11.1953 46.4872 11.0273 46.2181 10.9464 45.918C10.8655 45.6179 10.8752 45.3005 10.9743 45.006C11.0735 44.7115 11.2576 44.4532 11.5034 44.2638C11.7491 44.0744 12.0454 43.9625 12.3546 43.9423Z" fill="#5F2EEA"/>
<path fill-rule="evenodd" clip-rule="evenodd" d="M26.0174 0.455152C26.3104 0.746719 26.4767 1.14263 26.48 1.55662C26.48 1.97278 26.3152 2.37191 26.0218 2.66619C25.7285 2.96046 25.3306 3.12578 24.9157 3.12578C19.1371 3.13574 13.598 5.44288 9.51192 9.54175C5.42582 13.6406 3.12588 19.197 3.11595 24.9937C3.13536 25.2107 3.1095 25.4294 3.04002 25.6359C2.97054 25.8423 2.85897 26.032 2.7124 26.1928C2.56583 26.3536 2.38749 26.482 2.18873 26.5699C1.98996 26.6577 1.77514 26.7031 1.55793 26.7031C1.34072 26.7031 1.1259 26.6577 0.927133 26.5699C0.728369 26.482 0.550025 26.3536 0.403459 26.1928C0.256892 26.032 0.145317 25.8423 0.0758385 25.6359C0.00636009 25.4294 -0.0194985 25.2107 -9.04035e-05 24.9937C0.00653553 18.367 2.63371 12.0136 7.3049 7.32783C11.9761 2.64204 18.3097 0.00664666 24.9157 8.04367e-10C25.3284 -1.32457e-05 25.7244 0.163585 26.0174 0.455152ZM48.5673 16.607C48.7979 16.8099 48.9634 17.0767 49.0429 17.3739C49.0958 17.5717 49.1092 17.7781 49.0825 17.9811C49.0558 18.1842 48.9894 18.38 48.887 18.5572C48.7847 18.7345 48.6486 18.8898 48.4863 19.0141C48.3241 19.1385 48.139 19.2295 47.9416 19.282C47.6451 19.3608 47.332 19.3497 47.0418 19.2501C46.7516 19.1506 46.4974 18.9669 46.3111 18.7225C46.1249 18.478 46.0151 18.1837 45.9955 17.8767C45.9759 17.5696 46.0475 17.2637 46.2012 16.9974C46.3548 16.7311 46.5837 16.5165 46.8589 16.3807C47.1341 16.2448 47.4432 16.1938 47.7473 16.2341C48.0514 16.2744 48.3367 16.4042 48.5673 16.607ZM40.7964 6.86656C40.6511 7.01125 40.5358 7.18335 40.4571 7.37294C40.3784 7.56254 40.3379 7.76588 40.3379 7.97125C40.3379 8.17662 40.3784 8.37996 40.4571 8.56956C40.5358 8.75916 40.6511 8.93126 40.7964 9.07595C41.0909 9.36425 41.4861 9.52564 41.8976 9.52564C42.3092 9.52564 42.7044 9.36425 42.9989 9.07595C43.1435 8.93088 43.2582 8.75865 43.3365 8.56911C43.4148 8.37956 43.4551 8.17641 43.4551 7.97125C43.4551 7.76609 43.4148 7.56294 43.3365 7.37339C43.2582 7.18385 43.1435 7.01163 42.9989 6.86656C42.8543 6.72149 42.6826 6.60641 42.4936 6.5279C42.3047 6.44939 42.1022 6.40898 41.8976 6.40898C41.6931 6.40898 41.4906 6.44939 41.3017 6.5279C41.1127 6.60641 40.941 6.72149 40.7964 6.86656ZM31.6371 0.835141C31.9272 0.735557 32.2403 0.724469 32.5368 0.803278C32.7342 0.855745 32.9193 0.946772 33.0815 1.07114C33.2438 1.19551 33.38 1.35078 33.4823 1.52804C33.5846 1.7053 33.651 1.90107 33.6777 2.10414C33.7045 2.3072 33.691 2.51356 33.6381 2.71139C33.5586 3.00854 33.3931 3.27539 33.1625 3.47826C32.9319 3.68112 32.6466 3.81089 32.3425 3.85117C32.0385 3.89146 31.7293 3.84045 31.4541 3.7046C31.1789 3.56875 30.9501 3.35414 30.7964 3.08788C30.6427 2.82162 30.5712 2.51565 30.5907 2.20862C30.6103 1.90158 30.7201 1.60725 30.9064 1.36279C31.0926 1.11834 31.3469 0.934725 31.6371 0.835141Z" fill="url(#paint0_linear)"/>
<path d="M24.9156 9.94219C25.3106 9.93984 25.7021 10.0163 26.0674 10.1672C26.4326 10.318 26.7643 10.5403 27.0431 10.8209L29.7461 13.5324H33.5004C33.8942 13.5324 34.2842 13.6105 34.6479 13.762C35.0116 13.9136 35.3418 14.1357 35.6197 14.4156C35.8976 14.6956 36.1177 15.0278 36.2672 15.3933C36.4168 15.7587 36.4929 16.1502 36.4913 16.5453V20.3113L39.0692 22.8972C39.3488 23.1761 39.5707 23.5076 39.7222 23.8728C39.8736 24.2379 39.9515 24.6295 39.9515 25.025C39.9515 25.4205 39.8736 25.8121 39.7222 26.1773C39.5707 26.5425 39.3488 26.874 39.0692 27.1528L36.4913 29.7388V33.6178C36.4913 34.4135 36.1762 35.1767 35.6153 35.7393C35.0544 36.302 34.2936 36.6181 33.5004 36.6181H29.621L27.0431 39.2041C26.48 39.7675 25.7172 40.0839 24.9219 40.0839C24.1266 40.0839 23.3638 39.7675 22.8007 39.2041L20.2228 36.6181H16.4685C16.0747 36.6197 15.6845 36.5433 15.3201 36.3933C14.9558 36.2433 14.6246 36.0225 14.3456 35.7438C14.0665 35.465 13.8451 35.1337 13.694 34.7689C13.5429 34.404 13.4651 34.0129 13.4651 33.6178V29.8518L10.7871 27.1277C10.5075 26.8489 10.2856 26.5174 10.1342 26.1522C9.98274 25.787 9.90479 25.3954 9.90479 24.9999C9.90479 24.6044 9.98274 24.2128 10.1342 23.8477C10.2856 23.4825 10.5075 23.151 10.7871 22.8721L13.4902 20.1606V16.5453C13.4885 16.1491 13.5651 15.7566 13.7154 15.3903C13.8658 15.0241 14.0869 14.6913 14.3662 14.4112C14.6454 14.1311 14.9771 13.9092 15.3423 13.7584C15.7074 13.6076 16.0987 13.5308 16.4936 13.5324H20.0977L22.8007 10.8209C23.0781 10.5418 23.4077 10.3204 23.7707 10.1696C24.1336 10.0188 24.5228 9.9415 24.9156 9.94219ZM30.472 21.893C30.3764 21.7954 30.2625 21.718 30.1368 21.6651C30.0111 21.6122 29.8762 21.5849 29.7399 21.5849C29.6036 21.5849 29.4686 21.6122 29.3429 21.6651C29.2172 21.718 29.1033 21.7954 29.0078 21.893L24.0021 26.9143L21.8747 24.843C21.6801 24.6491 21.4169 24.5402 21.1426 24.5402C20.8683 24.5402 20.6051 24.6491 20.4105 24.843C20.3133 24.9388 20.236 25.0531 20.1833 25.1792C20.1306 25.3053 20.1034 25.4407 20.1034 25.5774C20.1034 25.7141 20.1306 25.8495 20.1833 25.9756C20.236 26.1017 20.3133 26.2159 20.4105 26.3118L23.2262 29.0358C23.3558 29.1682 23.5211 29.2598 23.7018 29.2995C23.8846 29.3624 24.0815 29.3722 24.2697 29.3278C24.4579 29.2833 24.6298 29.1865 24.7655 29.0484L30.4094 23.3868C30.5066 23.291 30.5839 23.1767 30.6366 23.0506C30.6893 22.9246 30.7165 22.7892 30.7165 22.6525C30.7165 22.5157 30.6893 22.3804 30.6366 22.2543C30.5839 22.1282 30.5066 22.0139 30.4094 21.9181L30.472 21.893Z" fill="#251ABB"/>
<path d="M79.7153 26.0608C79.7153 29.6594 78.6974 32.4128 76.6618 34.3209C74.622 36.229 71.6561 37.1956 67.8142 37.1956H61.6572V15.3528H68.49C71.514 15.1667 74.4897 16.1812 76.7744 18.1773C77.7862 19.2125 78.5705 20.4489 79.0771 21.8067C79.5836 23.1644 79.801 24.6136 79.7153 26.0608ZM74.9223 26.1863C74.9223 21.4914 72.8575 19.1439 68.7278 19.1439H66.325V33.3669H68.3023C72.7156 33.3669 74.9223 30.9733 74.9223 26.1863Z" fill="#140D7C"/>
<path d="M98.9999 28.8726C99.1118 31.1622 98.3462 33.4079 96.86 35.1493C96.081 35.934 95.1453 36.5444 94.1143 36.9403C93.0833 37.3363 91.9804 37.5088 90.8782 37.4465C89.4058 37.4751 87.9517 37.1158 86.6609 36.4046C85.4455 35.7137 84.4647 34.6729 83.8452 33.4169C83.1657 32.0006 82.8271 30.4441 82.8566 28.8726C82.7171 26.5547 83.4798 24.273 84.984 22.5081C85.7685 21.7288 86.7075 21.1238 87.7402 20.7324C88.7729 20.3409 89.8762 20.1718 90.9783 20.2359C92.4563 20.2072 93.9155 20.571 95.2081 21.2904C96.4241 21.9823 97.4017 23.0286 98.0113 24.2906C98.6966 25.7183 99.0354 27.2884 98.9999 28.8726ZM87.4869 28.8726C87.4044 30.1793 87.686 31.4833 88.3003 32.6386C88.5914 33.0624 88.9888 33.4016 89.4525 33.622C89.9161 33.8424 90.4295 33.9362 90.9408 33.8939C91.4488 33.9382 91.9593 33.8452 92.4193 33.6244C92.8793 33.4036 93.2719 33.0632 93.5562 32.6386C94.1625 31.4807 94.4395 30.1779 94.3572 28.8726C94.4506 27.5651 94.1683 26.2581 93.5437 25.1066C93.2555 24.6829 92.8604 24.3435 92.3987 24.1229C91.9371 23.9024 91.4253 23.8087 90.9157 23.8513C90.4065 23.8112 89.8956 23.9061 89.4344 24.1265C88.9732 24.3468 88.5778 24.6848 88.2878 25.1066C87.6766 26.2627 87.3992 27.567 87.4869 28.8726Z" fill="#140D7C"/>
<path d="M112.04 20.1731C112.556 20.1659 113.072 20.2122 113.579 20.3112L113.229 24.5793C112.79 24.4751 112.34 24.4286 111.89 24.4412C110.662 24.3597 109.45 24.7604 108.511 25.5585C108.088 25.9595 107.757 26.4478 107.541 26.9897C107.325 27.5315 107.229 28.114 107.26 28.6968V37.1954H102.754V20.4869H106.196L106.859 23.2989H107.084C107.583 22.3831 108.301 21.6065 109.174 21.0393C110.022 20.4713 111.02 20.1697 112.04 20.1731Z" fill="#140D7C"/>
<path d="M126.869 37.1955L125.993 34.9234H125.88C125.256 35.7664 124.447 36.4537 123.515 36.9319C122.511 37.34 121.432 37.5284 120.349 37.4842C119.664 37.5224 118.978 37.4209 118.332 37.1857C117.687 36.9505 117.096 36.5866 116.595 36.1159C116.11 35.592 115.737 34.9745 115.498 34.3011C115.259 33.6277 115.16 32.9125 115.206 32.1993C115.153 31.4405 115.297 30.681 115.624 29.9947C115.951 29.3083 116.449 28.7185 117.07 28.2826C118.765 27.3169 120.691 26.835 122.639 26.8892L125.53 26.7888V26.0607C125.57 25.7134 125.531 25.3615 125.413 25.0322C125.296 24.7029 125.105 24.4052 124.854 24.1623C124.603 23.9193 124.3 23.7377 123.968 23.6315C123.636 23.5253 123.284 23.4974 122.939 23.55C121.306 23.6401 119.708 24.0674 118.247 24.8054L116.745 21.7298C118.714 20.7132 120.901 20.196 123.115 20.2234C124.947 20.1001 126.765 20.6193 128.258 21.6921C128.877 22.2446 129.361 22.9331 129.671 23.7039C129.982 24.4747 130.111 25.3071 130.048 26.136V37.2708L126.869 37.1955ZM125.53 29.4501L123.778 29.5129C122.747 29.4748 121.725 29.7224 120.825 30.2284C120.505 30.4519 120.249 30.7542 120.08 31.106C119.912 31.4578 119.836 31.8473 119.861 32.2369C119.861 33.4923 120.599 34.1576 122.064 34.1576C122.983 34.1953 123.882 33.871 124.566 33.2538C124.881 32.9368 125.127 32.558 125.289 32.141C125.45 31.724 125.524 31.2779 125.505 30.831L125.53 29.4501Z" fill="#140D7C"/>
<path d="M143.225 37.1956H133.326V34.5594L135.967 33.3041V19.2067L133.326 17.9513V15.3528H143.225V17.9764L140.572 19.2318V33.3417L143.225 34.5971V37.1956Z" fill="#5F2EEA"/>
<path d="M165 26.0609C165 29.6595 163.982 32.4129 161.946 34.321C159.907 36.2291 156.941 37.1957 153.111 37.1957H146.942V15.3529H153.775C156.799 15.1641 159.776 16.1789 162.059 18.1774C163.071 19.2126 163.855 20.449 164.362 21.8068C164.868 23.1645 165.086 24.6137 165 26.0609ZM160.207 26.1864C160.207 21.4915 158.121 19.144 153.95 19.144H151.447V33.3669H153.424C157.992 33.3669 160.182 30.9693 160.182 26.1864H160.207Z" fill="#5F2EEA"/>
</g>
<defs>
<linearGradient id="paint0_linear" x1="106.375" y1="6.47969" x2="114.103" y2="6.47969" gradientUnits="userSpaceOnUse">
<stop offset="0.01" stop-color="#9E98FF"/>
<stop offset="1" stop-color="#5F2EEA" stop-opacity="0"/>
</linearGradient>
<clipPath id="clip0">
<rect width="165" height="50" fill="white"/>
</clipPath>
</defs>
</svg>
