<svg width="40" height="40" viewBox="0 0 40 40" fill="none" xmlns="http://www.w3.org/2000/svg">
<path fill-rule="evenodd" clip-rule="evenodd" d="M38.6241 18.7498C38.2956 18.7524 37.9814 18.8844 37.7491 19.1174C37.5169 19.3504 37.3853 19.6656 37.3826 19.995C37.3773 24.6359 35.5372 29.0851 32.2659 32.3666C28.9945 35.6482 24.5592 37.4941 19.9328 37.4994C19.6215 37.5275 19.332 37.6713 19.1211 37.9027C18.9102 38.1341 18.7932 38.4362 18.7932 38.7498C18.7932 39.0633 18.9102 39.3654 19.1211 39.5968C19.332 39.8282 19.6215 39.9721 19.9328 40.0001C25.2154 39.9789 30.2757 37.8645 34.0111 34.1174C37.7465 30.3703 39.8544 25.2942 39.8755 19.995C39.8728 19.6639 39.7398 19.3471 39.5054 19.1139C39.271 18.8806 38.9542 18.7497 38.6241 18.7498ZM3.00354 28.9128C2.78808 29.0359 2.6139 29.2203 2.50308 29.4427C2.39227 29.6652 2.34981 29.9156 2.3811 30.1623C2.4124 30.409 2.51603 30.6408 2.67885 30.8284C2.84167 31.0159 3.05635 31.1507 3.29565 31.2156C3.53495 31.2806 3.78809 31.2728 4.02297 31.1932C4.25784 31.1136 4.46386 30.9659 4.61489 30.7687C4.76592 30.5715 4.85516 30.3337 4.87129 30.0855C4.88742 29.8374 4.8297 29.59 4.70548 29.3748C4.53997 29.0881 4.26819 28.8787 3.94938 28.7921C3.63057 28.7056 3.29059 28.749 3.00354 28.9128ZM9.88363 35.1538C10.131 35.1376 10.3776 35.1955 10.5921 35.3201C10.7347 35.4014 10.8597 35.5101 10.9601 35.6401C11.0605 35.7701 11.1342 35.9188 11.177 36.0775C11.2198 36.2362 11.2309 36.4019 11.2096 36.5649C11.1882 36.7279 11.1349 36.8851 11.0527 37.0274C10.93 37.2435 10.7462 37.4182 10.5244 37.5294C10.3027 37.6406 10.053 37.6831 9.80708 37.6518C9.56115 37.6204 9.33007 37.5164 9.14313 37.3531C8.95618 37.1897 8.82182 36.9744 8.75706 36.7344C8.69231 36.4943 8.7001 36.2404 8.77942 36.0048C8.85875 35.7692 9.00605 35.5625 9.20264 35.411C9.39923 35.2595 9.63625 35.17 9.88363 35.1538Z" fill="#5F2EEA"/>
<path fill-rule="evenodd" clip-rule="evenodd" d="M20.8141 0.364121C21.0485 0.597375 21.1815 0.9141 21.1842 1.24529C21.1842 1.57823 21.0523 1.89753 20.8177 2.13295C20.583 2.36837 20.2647 2.50063 19.9328 2.50063C15.3099 2.50859 10.8786 4.3543 7.60973 7.6334C4.34085 10.9125 2.5009 15.3576 2.49295 19.995C2.50848 20.1686 2.48779 20.3435 2.43221 20.5087C2.37663 20.6738 2.28737 20.8256 2.17012 20.9542C2.05286 21.0829 1.91019 21.1856 1.75118 21.2559C1.59217 21.3262 1.4203 21.3625 1.24654 21.3625C1.07277 21.3625 0.900912 21.3262 0.741901 21.2559C0.58289 21.1856 0.440215 21.0829 0.322962 20.9542C0.205709 20.8256 0.116449 20.6738 0.0608662 20.5087C0.00528339 20.3435 -0.0154035 20.1686 0.00012299 19.995C0.00542374 14.6936 2.10717 9.6109 5.84411 5.86227C9.58106 2.11363 14.6479 0.00531732 19.9328 6.43587e-10C20.2629 -1.05974e-05 20.5797 0.130868 20.8141 0.364121ZM38.8541 13.2856C39.0386 13.4479 39.171 13.6614 39.2346 13.8991C39.2769 14.0574 39.2877 14.2225 39.2663 14.3849C39.2449 14.5474 39.1918 14.704 39.1099 14.8458C39.0281 14.9876 38.9192 15.1118 38.7894 15.2113C38.6596 15.3108 38.5115 15.3836 38.3536 15.4256C38.1164 15.4886 37.8659 15.4798 37.6338 15.4001C37.4016 15.3204 37.1982 15.1736 37.0492 14.978C36.9002 14.7824 36.8124 14.547 36.7967 14.3013C36.7811 14.0557 36.8383 13.8109 36.9613 13.5979C37.0842 13.3849 37.2673 13.2132 37.4874 13.1045C37.7076 12.9959 37.9549 12.9551 38.1981 12.9873C38.4414 13.0195 38.6697 13.1233 38.8541 13.2856ZM32.6373 5.49326C32.5211 5.60901 32.4288 5.74669 32.3659 5.89837C32.3029 6.05005 32.2705 6.21272 32.2705 6.37702C32.2705 6.54131 32.3029 6.70399 32.3659 6.85566C32.4288 7.00734 32.5211 7.14502 32.6373 7.26077C32.8729 7.49142 33.1891 7.62053 33.5183 7.62053C33.8475 7.62053 34.1637 7.49142 34.3993 7.26077C34.515 7.14472 34.6068 7.00694 34.6694 6.8553C34.732 6.70367 34.7642 6.54115 34.7642 6.37702C34.7642 6.21289 34.732 6.05037 34.6694 5.89873C34.6068 5.7471 34.515 5.60932 34.3993 5.49326C34.2836 5.3772 34.1463 5.28514 33.9951 5.22233C33.8439 5.15952 33.6819 5.1272 33.5183 5.1272C33.3547 5.1272 33.1927 5.15952 33.0415 5.22233C32.8904 5.28514 32.753 5.3772 32.6373 5.49326ZM25.3098 0.668113C25.542 0.588445 25.7924 0.579575 26.0296 0.642622C26.1875 0.684596 26.3356 0.757418 26.4654 0.856913C26.5952 0.956408 26.7041 1.08062 26.786 1.22243C26.8678 1.36424 26.921 1.52086 26.9424 1.68331C26.9637 1.84576 26.953 2.01085 26.9106 2.16911C26.847 2.40683 26.7146 2.62032 26.5302 2.78261C26.3457 2.9449 26.1174 3.04871 25.8742 3.08094C25.6309 3.11317 25.3836 3.07236 25.1635 2.96368C24.9433 2.855 24.7602 2.68331 24.6373 2.4703C24.5143 2.2573 24.4571 2.01252 24.4727 1.76689C24.4884 1.52126 24.5763 1.2858 24.7253 1.09024C24.8742 0.894672 25.0777 0.74778 25.3098 0.668113Z" fill="url(#paint0_linear)"/>
<path d="M19.9328 7.9539C20.2487 7.95202 20.5619 8.0132 20.8541 8.13389C21.1463 8.25458 21.4117 8.43236 21.6347 8.65689L23.7972 10.8261H26.8006C27.1156 10.8261 27.4276 10.8885 27.7185 11.0098C28.0095 11.131 28.2737 11.3087 28.496 11.5327C28.7183 11.7566 28.8944 12.0224 29.014 12.3147C29.1337 12.6071 29.1946 12.9203 29.1933 13.2363V16.2492L31.2556 18.3179C31.4793 18.541 31.6568 18.8062 31.778 19.0984C31.8991 19.3905 31.9615 19.7038 31.9615 20.0202C31.9615 20.3366 31.8991 20.6499 31.778 20.942C31.6568 21.2341 31.4793 21.4994 31.2556 21.7224L29.1933 23.7912V26.8944C29.1933 27.531 28.9412 28.1415 28.4925 28.5916C28.0438 29.0417 27.4352 29.2946 26.8006 29.2946H23.697L21.6347 31.3634C21.1843 31.8141 20.574 32.0673 19.9378 32.0673C19.3015 32.0673 18.6913 31.8141 18.2408 31.3634L16.1785 29.2946H13.1751C12.86 29.2959 12.5478 29.2348 12.2564 29.1148C11.9649 28.9948 11.6999 28.8182 11.4767 28.5952C11.2535 28.3721 11.0763 28.1071 10.9554 27.8152C10.8346 27.5234 10.7724 27.2104 10.7724 26.8944V23.8816L8.62992 21.7023C8.40623 21.4793 8.22871 21.214 8.10757 20.9219C7.98643 20.6298 7.92407 20.3165 7.92407 20.0001C7.92407 19.6837 7.98643 19.3704 8.10757 19.0783C8.22871 18.7861 8.40623 18.5209 8.62992 18.2979L10.7924 16.1286V13.2363C10.7911 12.9195 10.8523 12.6054 10.9726 12.3124C11.0929 12.0194 11.2698 11.7532 11.4932 11.5291C11.7165 11.305 11.9819 11.1275 12.2741 11.0069C12.5662 10.8862 12.8792 10.8248 13.1951 10.8261H16.0784L18.2408 8.65689C18.4627 8.43356 18.7264 8.25648 19.0168 8.13583C19.3072 8.01518 19.6185 7.95335 19.9328 7.9539ZM24.3778 17.5145C24.3014 17.4365 24.2103 17.3745 24.1097 17.3322C24.0091 17.2899 23.9012 17.2681 23.7921 17.2681C23.6831 17.2681 23.5752 17.2899 23.4746 17.3322C23.374 17.3745 23.2829 17.4365 23.2065 17.5145L19.2019 21.5316L17.5 19.8746C17.3443 19.7194 17.1338 19.6323 16.9143 19.6323C16.6949 19.6323 16.4843 19.7194 16.3287 19.8746C16.2509 19.9512 16.1891 20.0426 16.1469 20.1435C16.1047 20.2444 16.083 20.3527 16.083 20.4621C16.083 20.5714 16.1047 20.6797 16.1469 20.7806C16.1891 20.8815 16.2509 20.9729 16.3287 21.0496L18.5812 23.2288C18.6849 23.3347 18.8171 23.408 18.9617 23.4397C19.108 23.49 19.2655 23.4979 19.416 23.4624C19.5666 23.4268 19.704 23.3493 19.8126 23.2389L24.3278 18.7096C24.4055 18.633 24.4673 18.5415 24.5095 18.4407C24.5517 18.3398 24.5734 18.2315 24.5734 18.1221C24.5734 18.0127 24.5517 17.9044 24.5095 17.8036C24.4673 17.7027 24.4055 17.6113 24.3278 17.5346L24.3778 17.5145Z" fill="#251ABB"/>
<defs>
<linearGradient id="paint0_linear" x1="85.1007" y1="5.18375" x2="91.283" y2="5.18375" gradientUnits="userSpaceOnUse">
<stop offset="0.01" stop-color="#9E98FF"/>
<stop offset="1" stop-color="#5F2EEA" stop-opacity="0"/>
</linearGradient>
</defs>
</svg>
