<svg width="20" height="20" viewBox="0 0 20 20" fill="none" xmlns="http://www.w3.org/2000/svg">
<path fill-rule="evenodd" clip-rule="evenodd" d="M10 0C4.47656 0 0 4.47656 0 10C0 15.5234 4.47656 20 10 20C15.5234 20 20 15.5234 20 10C20 4.47656 15.5234 0 10 0ZM10 3.75C10.3457 3.75 10.625 4.0293 10.625 4.375C10.625 4.7207 10.3457 5 10 5C9.6543 5 9.375 4.7207 9.375 4.375C9.375 4.0293 9.6543 3.75 10 3.75ZM11.8652 16.25H10.5957H9.3457H8.13476C7.78906 16.25 7.50977 15.9707 7.50977 15.625C7.50977 15.2793 7.78906 15 8.13476 15H9.3457V8.70117H8.11524C7.76953 8.70117 7.49024 8.42187 7.49024 8.07617C7.49024 7.73047 7.76953 7.45117 8.11524 7.45117H9.3457H9.9707C10.3164 7.45117 10.5957 7.73047 10.5957 8.07617V15H11.8652C12.2109 15 12.5098 15.2793 12.5098 15.625C12.5098 15.9707 12.2109 16.25 11.8652 16.25Z" fill="#FAAD14"/>
</svg>
